<?xml version="1.0" encoding="UTF-8"?>
<svg xmlns="http://www.w3.org/2000/svg" width="227" height="39" viewBox="0 0 227 39" fill="none">
  <path d="M15.4336 29H13.2773V21.0078H4.48828V29H2.33203V11.8672H4.48828V19.1094H13.2773V11.8672H15.4336V29ZM25.5469 29H23.3789V13.7656H18.0234V11.8672H30.8672V13.7656H25.5469V29ZM33.4805 29V11.8672H35.6367V27.0781H43.125V29H33.4805ZM62.0156 24.418C62.0156 25.9102 61.4766 27.0859 60.3984 27.9453C59.3203 28.8047 57.8203 29.2344 55.8984 29.2344C53.8672 29.2344 52.2969 28.9648 51.1875 28.4258V26.3633C51.9141 26.6758 52.707 26.9219 53.5664 27.1016C54.4336 27.2812 55.2422 27.3711 55.9922 27.3711C57.2734 27.3711 58.2383 27.125 58.8867 26.6328C59.5352 26.1406 59.8594 25.4648 59.8594 24.6055C59.8594 24.0352 59.7422 23.5664 59.5078 23.1992C59.2734 22.832 58.8789 22.4883 58.3242 22.168C57.7773 21.8477 56.9453 21.4844 55.8281 21.0781C54.2422 20.5 53.1094 19.8203 52.4297 19.0391C51.75 18.25 51.4102 17.2344 51.4102 15.9922C51.4102 14.6562 51.9102 13.5938 52.9102 12.8047C53.918 12.0156 55.2422 11.6211 56.8828 11.6211C58.5938 11.6211 60.168 11.9414 61.6055 12.582L60.9375 14.4336C59.4688 13.8242 58.1016 13.5195 56.8359 13.5195C55.8203 13.5195 55.0234 13.7383 54.4453 14.1758C53.875 14.6133 53.5898 15.2266 53.5898 16.0156C53.5898 16.5781 53.6992 17.0469 53.918 17.4219C54.1445 17.7891 54.5039 18.125 54.9961 18.4297C55.4961 18.7344 56.2773 19.082 57.3398 19.4727C58.6133 19.9414 59.5625 20.3984 60.1875 20.8438C60.8125 21.2812 61.2734 21.7891 61.5703 22.3672C61.8672 22.9375 62.0156 23.6211 62.0156 24.418ZM73.125 29L72.7148 27.1719H72.6211C71.9805 27.9766 71.3398 28.5234 70.6992 28.8125C70.0664 29.0938 69.2656 29.2344 68.2969 29.2344C67.0312 29.2344 66.0391 28.9023 65.3203 28.2383C64.6016 27.5742 64.2422 26.6367 64.2422 25.4258C64.2422 22.8164 66.3008 21.4492 70.418 21.3242L72.5977 21.2422V20.4805C72.5977 19.5039 72.3867 18.7852 71.9648 18.3242C71.543 17.8555 70.8672 17.6211 69.9375 17.6211C69.2578 17.6211 68.6133 17.7227 68.0039 17.9258C67.4023 18.1289 66.8359 18.3555 66.3047 18.6055L65.6602 17.0234C66.3086 16.6797 67.0156 16.4102 67.7812 16.2148C68.5469 16.0195 69.3047 15.9219 70.0547 15.9219C71.6094 15.9219 72.7656 16.2656 73.5234 16.9531C74.2812 17.6406 74.6602 18.7344 74.6602 20.2344V29H73.125ZM68.7773 27.5352C69.957 27.5352 70.8828 27.2188 71.5547 26.5859C72.2344 25.9453 72.5742 25.0391 72.5742 23.8672V22.707L70.6758 22.7891C69.1992 22.8438 68.1211 23.0781 67.4414 23.4922C66.7695 23.9062 66.4336 24.5586 66.4336 25.4492C66.4336 26.1211 66.6367 26.6367 67.043 26.9961C67.457 27.3555 68.0352 27.5352 68.7773 27.5352ZM86.6016 29L86.1914 27.1719H86.0977C85.457 27.9766 84.8164 28.5234 84.1758 28.8125C83.543 29.0938 82.7422 29.2344 81.7734 29.2344C80.5078 29.2344 79.5156 28.9023 78.7969 28.2383C78.0781 27.5742 77.7188 26.6367 77.7188 25.4258C77.7188 22.8164 79.7773 21.4492 83.8945 21.3242L86.0742 21.2422V20.4805C86.0742 19.5039 85.8633 18.7852 85.4414 18.3242C85.0195 17.8555 84.3438 17.6211 83.4141 17.6211C82.7344 17.6211 82.0898 17.7227 81.4805 17.9258C80.8789 18.1289 80.3125 18.3555 79.7812 18.6055L79.1367 17.0234C79.7852 16.6797 80.4922 16.4102 81.2578 16.2148C82.0234 16.0195 82.7812 15.9219 83.5312 15.9219C85.0859 15.9219 86.2422 16.2656 87 16.9531C87.7578 17.6406 88.1367 18.7344 88.1367 20.2344V29H86.6016ZM82.2539 27.5352C83.4336 27.5352 84.3594 27.2188 85.0312 26.5859C85.7109 25.9453 86.0508 25.0391 86.0508 23.8672V22.707L84.1523 22.7891C82.6758 22.8438 81.5977 23.0781 80.918 23.4922C80.2461 23.9062 79.9102 24.5586 79.9102 25.4492C79.9102 26.1211 80.1133 26.6367 80.5195 26.9961C80.9336 27.3555 81.5117 27.5352 82.2539 27.5352ZM94.2422 29H92.1328V10.7656H94.2422V29ZM104.25 17.7734H101.004V29H98.8945V17.7734H96.6445V16.7891L98.8945 16.0625V15.3242C98.8945 13.7617 99.2344 12.5898 99.9141 11.8086C100.602 11.0273 101.656 10.6367 103.078 10.6367C103.898 10.6367 104.73 10.7812 105.574 11.0703L105.012 12.7227C104.285 12.4883 103.648 12.3711 103.102 12.3711C102.391 12.3711 101.863 12.6055 101.52 13.0742C101.176 13.543 101.004 14.2852 101.004 15.3008V16.1328H104.25V17.7734ZM112.066 29.2344C110.137 29.2344 108.621 28.6523 107.52 27.4883C106.426 26.3164 105.879 24.707 105.879 22.6602C105.879 20.5977 106.391 18.957 107.414 17.7383C108.438 16.5117 109.82 15.8984 111.562 15.8984C113.18 15.8984 114.469 16.4219 115.43 17.4688C116.391 18.5078 116.871 19.918 116.871 21.6992V22.9766H108.059C108.098 24.4375 108.469 25.5469 109.172 26.3047C109.875 27.0625 110.871 27.4414 112.16 27.4414C112.848 27.4414 113.5 27.3828 114.117 27.2656C114.734 27.1406 115.457 26.9023 116.285 26.5508V28.4023C115.574 28.707 114.906 28.9219 114.281 29.0469C113.656 29.1719 112.918 29.2344 112.066 29.2344ZM111.539 17.6211C110.531 17.6211 109.734 17.9453 109.148 18.5938C108.562 19.2422 108.215 20.1445 108.105 21.3008H114.656C114.641 20.0977 114.363 19.1836 113.824 18.5586C113.285 17.9336 112.523 17.6211 111.539 17.6211ZM122.25 29H120.141V10.7656H122.25V29ZM130.887 29.2344C129.215 29.2344 127.918 28.6562 126.996 27.5C126.074 26.3438 125.613 24.707 125.613 22.5898C125.613 20.4883 126.074 18.8477 126.996 17.668C127.926 16.4883 129.23 15.8984 130.91 15.8984C132.637 15.8984 133.965 16.5312 134.895 17.7969H135.047C135.023 17.6406 134.992 17.3281 134.953 16.8594C134.914 16.3828 134.895 16.0625 134.895 15.8984V10.7656H137.004V29H135.305L134.988 27.2773H134.895C133.996 28.582 132.66 29.2344 130.887 29.2344ZM131.227 27.4883C132.508 27.4883 133.441 27.1406 134.027 26.4453C134.621 25.7422 134.918 24.5938 134.918 23V22.6133C134.918 20.8242 134.617 19.5508 134.016 18.793C133.422 18.0273 132.484 17.6445 131.203 17.6445C130.117 17.6445 129.277 18.0781 128.684 18.9453C128.09 19.8047 127.793 21.0352 127.793 22.6367C127.793 24.2305 128.086 25.4375 128.672 26.2578C129.266 27.0781 130.117 27.4883 131.227 27.4883ZM146.566 29.2344C144.637 29.2344 143.121 28.6523 142.02 27.4883C140.926 26.3164 140.379 24.707 140.379 22.6602C140.379 20.5977 140.891 18.957 141.914 17.7383C142.938 16.5117 144.32 15.8984 146.062 15.8984C147.68 15.8984 148.969 16.4219 149.93 17.4688C150.891 18.5078 151.371 19.918 151.371 21.6992V22.9766H142.559C142.598 24.4375 142.969 25.5469 143.672 26.3047C144.375 27.0625 145.371 27.4414 146.66 27.4414C147.348 27.4414 148 27.3828 148.617 27.2656C149.234 27.1406 149.957 26.9023 150.785 26.5508V28.4023C150.074 28.707 149.406 28.9219 148.781 29.0469C148.156 29.1719 147.418 29.2344 146.566 29.2344ZM146.039 17.6211C145.031 17.6211 144.234 17.9453 143.648 18.5938C143.062 19.2422 142.715 20.1445 142.605 21.3008H149.156C149.141 20.0977 148.863 19.1836 148.324 18.5586C147.785 17.9336 147.023 17.6211 146.039 17.6211ZM163.406 29V20.7734C163.406 19.7266 163.172 18.9492 162.703 18.4414C162.242 17.9258 161.516 17.668 160.523 17.668C159.203 17.668 158.242 18.0352 157.641 18.7695C157.047 19.4961 156.75 20.6836 156.75 22.332V29H154.641V16.1328H156.34L156.656 17.8906H156.773C157.172 17.2578 157.73 16.7695 158.449 16.4258C159.168 16.0742 159.961 15.8984 160.828 15.8984C162.406 15.8984 163.578 16.2812 164.344 17.0469C165.109 17.8125 165.492 19.0039 165.492 20.6211V29H163.406Z" fill="#F5F6F6"></path>
  <g clip-path="url(#clip0_3459_355)">
    <path d="M188.034 0.0344238C188.034 0.0344238 187.324 12.6551 193.249 18.862C197.893 23.7241 201.219 24.9827 206.746 25.1723C211.649 24.8965 212.827 24.2758 213.52 23.9137C213.468 23.6379 213.382 23.1379 212.966 22.1551C212.567 21.1551 212.065 20.3448 212.065 20.3448C212.065 20.3448 210.298 21.6034 208.34 21.6034C206.382 21.6034 203.09 20.9137 201.479 16.2758C199.816 11.4999 199.608 4.12063 199.608 2.39649C199.608 0.672355 199.66 0.086148 199.66 0.086148L188.034 0.0344238Z" fill="#F5F6F6"></path>
    <path d="M226.878 38.9484C226.878 38.9484 228.091 25.8794 222.356 19.6035C217.869 14.6725 214.508 13.6897 209.154 13.5173C204.407 13.7932 202.969 14.7415 202.311 15.1035C202.363 15.3794 202.345 15.6035 202.744 16.6035C203.142 17.6035 203.627 18.3449 203.627 18.3449C203.627 18.3449 205.55 17.1553 207.439 17.1553C209.327 17.1553 212.637 18.0691 214.196 22.776C215.79 27.6035 215.651 34.8277 215.651 36.5691C215.651 38.3104 215.599 38.8966 215.599 38.8966L226.844 38.9484H226.878Z" fill="#F5F6F6"></path>
    <path d="M215.825 0H226.861C226.861 0 227 7.27586 226.601 9.51724C225.44 15.8966 222.72 18.8276 222.72 18.8276C222.72 18.8276 221.715 17.4138 219.325 15.7759C216.934 14.1207 214.854 13.3448 214.854 13.3448C214.854 13.3448 215.651 9.2931 215.773 6.94828C215.911 4.60345 215.825 0.0172414 215.825 0.0172414" fill="#F5F6F6"></path>
    <path d="M200.163 39H188.087C188.087 39 188.277 34.1034 189.161 29.7069C190.357 23.8103 193.389 20.5 193.389 20.5C193.389 20.5 193.718 21.1379 196.334 22.8276C198.95 24.5172 201.22 25.3276 201.22 25.3276C201.22 25.3276 200.527 29.1379 200.371 31.5517C200.232 33.9655 200.146 39 200.146 39" fill="#F5F6F6"></path>
  </g>
  <defs>
    <clipPath id="clip0_3459_355">
      <rect width="39" height="39" fill="white" transform="translate(188)"></rect>
    </clipPath>
  </defs>
</svg>
