<svg width="141" height="141" viewBox="0 0 141 141" fill="none" xmlns="http://www.w3.org/2000/svg">
<g clip-path="url(#clip0_3426_1029)">
<path d="M0.125353 0.124756C0.125353 0.124756 -2.44284 45.7534 18.9796 68.1937C35.7668 85.7719 47.7935 90.3223 67.7753 91.008C85.5021 90.0107 89.7615 87.7666 92.2671 86.4576C92.0791 85.4603 91.766 83.6526 90.2626 80.0995C88.8219 76.4842 87.0054 73.5544 87.0054 73.5544C87.0054 73.5544 80.6162 78.1048 73.5381 78.1048C66.4599 78.1048 54.5585 75.6115 48.7331 58.8436C42.7198 41.577 41.9681 14.898 41.9681 8.66454C41.9681 2.43112 42.156 0.311758 42.156 0.311758L0.125353 0.124756Z" fill="#C10A25"/>
<path d="M140.561 140.813C140.561 140.813 144.946 93.5637 124.212 70.8741C107.989 53.0465 95.837 49.4935 76.4816 48.8701C59.3186 49.8675 54.1195 53.2958 51.7393 54.6049C51.9272 55.6022 51.8645 56.4126 53.3052 60.0279C54.7459 63.6433 56.4998 66.3237 56.4998 66.3237C56.4998 66.3237 63.4527 62.0226 70.2804 62.0226C77.108 62.0226 89.072 65.3263 94.7095 82.3436C100.472 99.7972 99.9712 125.915 99.9712 132.211C99.9712 138.507 99.7832 140.626 99.7832 140.626L140.436 140.813H140.561Z" fill="#C10A25"/>
<path d="M100.598 0H140.499C140.499 0 141 26.305 139.559 34.4085C135.362 57.4721 125.528 68.069 125.528 68.069C125.528 68.069 121.895 62.9576 113.251 57.0358C104.607 51.0517 97.0898 48.2467 97.0898 48.2467C97.0898 48.2467 99.9712 33.5981 100.41 25.1207C100.911 16.6432 100.598 0.0623342 100.598 0.0623342" fill="#C10A25"/>
<path d="M43.9727 141H0.313477C0.313477 141 1.0025 123.297 4.19708 107.402C8.51916 86.0836 19.481 74.1155 19.481 74.1155C19.481 74.1155 20.6711 76.4218 30.1296 82.5306C39.588 88.6393 47.7937 91.5691 47.7937 91.5691C47.7937 91.5691 45.2882 105.345 44.7244 114.072C44.2233 122.798 43.9101 141 43.9101 141" fill="#C10A25"/>
</g>
<defs>
<clipPath id="clip0_3426_1029">
<rect width="141" height="141" fill="white"/>
</clipPath>
</defs>
</svg>
