<?xml version="1.0" encoding="UTF-8" standalone="no"?>
<svg
   id="Ebene_1"
   data-name="Ebene 1"
   viewBox="0 0 225 225"
   version="1.1"
   sodipodi:docname="htl-logo.svg"
   inkscape:version="1.4 (e7c3feb, 2024-10-09)"
   inkscape:export-filename="htl-logo.png"
   inkscape:export-xdpi="27.306667"
   inkscape:export-ydpi="27.306667"
   xmlns:inkscape="http://www.inkscape.org/namespaces/inkscape"
   xmlns:sodipodi="http://sodipodi.sourceforge.net/DTD/sodipodi-0.dtd"
   xmlns="http://www.w3.org/2000/svg"
   xmlns:svg="http://www.w3.org/2000/svg">
  <sodipodi:namedview
     id="namedview6"
     pagecolor="#ffffff"
     bordercolor="#000000"
     borderopacity="0.25"
     inkscape:showpageshadow="2"
     inkscape:pageopacity="0.0"
     inkscape:pagecheckerboard="0"
     inkscape:deskcolor="#d1d1d1"
     inkscape:zoom="4.5332628"
     inkscape:cx="134.56092"
     inkscape:cy="30.772538"
     inkscape:window-width="1920"
     inkscape:window-height="1011"
     inkscape:window-x="0"
     inkscape:window-y="0"
     inkscape:window-maximized="1"
     inkscape:current-layer="Ebene_1" />
  <defs
     id="defs1">
    <style
       id="style1">
      .cls-1 {
        fill: #fefefe;
      }

      .cls-1, .cls-2, .cls-3 {
        stroke-width: 0px;
      }

      .cls-2 {
        fill: #14408e;
      }

      .cls-3 {
        fill: #114090;
      }
    </style>
  </defs>
  <path
     class="cls-3"
     d="M220,0h5v225c-75,0-150,0-225,0C0,150,0,75,0,0c1.33,0,2.67,0,4,0,.67,11.3.7,22.69,2.14,33.89,3.26,25.35,12.42,48.61,28.29,68.7,23.4,29.62,53.11,45.91,92.02,40.28,7.22-1.04,14.21-3.67,22.26-5.82-4.49-8.65-8.33-16.03-12.32-23.71-18.17,17.64-36.92,12.42-48.79-4.59-5.45-7.81-10.07-16.48-13.49-25.37C63.78,56.58,61.41,28.47,62,0h102c.24,9.02.48,18.04.72,27.06-1.02,17.46-4.14,34.54-9.08,50.08,11.5,9.12,22.49,17.84,33.6,26.66.21-.26.99-1.12,1.68-2.04,13.14-17.41,21.56-36.95,25.99-58.22,2.98-14.35,4.88-28.82,3.1-43.53ZM219.13,222.8c0-9.82.62-19.47-.11-29.02-2.38-31.16-12.86-59.33-33.13-83.35-19.73-23.38-44.49-37.12-75.75-37.05-10.8.02-21.29,2.14-32.08,6.86,4.13,8.21,8.02,15.91,12.05,23.92,2-1.62,3.18-2.53,4.31-3.49,12-10.22,25.73-10.47,37.31.27,5.16,4.78,9.73,10.58,13.22,16.69,12.71,22.26,17.32,46.89,19,72.08.73,10.9.12,21.88.12,33.09h55.07ZM61.52,222.82c-1.33-28.3,1.29-55.77,9.05-81.15-12.4-9.57-24.13-18.62-36.15-27.89C10.23,145.5,1.28,182.34,3.79,222.82h57.73Z"
     id="path1"
     style="fill:#c10a25;fill-opacity:1" />
  <path
     class="cls-1"
     d="M62,0c-.59,28.47,1.78,56.58,12.11,83.37,3.43,8.89,8.04,17.56,13.49,25.37,11.87,17.01,30.62,22.23,48.79,4.59,3.99,7.69,7.82,15.06,12.32,23.71-8.05,2.15-15.04,4.78-22.26,5.82-38.91,5.63-68.62-10.66-92.02-40.28C18.56,82.5,9.4,59.24,6.14,33.89,4.7,22.69,4.67,11.3,4,0h58Z"
     id="path2" />
  <path
     class="cls-1"
     d="M220,0c1.78,14.71-.12,29.19-3.1,43.53-4.42,21.27-12.85,40.81-25.99,58.22-.69.92-1.47,1.78-1.68,2.04-11.11-8.82-22.1-17.54-33.6-26.66,4.94-15.53,8.06-32.61,9.08-50.08.09-9.02.19-18.04.28-27.06h55Z"
     id="path3" />
  <path
     class="cls-2"
     d="M165,0l-.28,27.06s-1.72-27.06-.72-27.06h1Z"
     id="path4"
     style="fill:#c10a25;fill-opacity:1" />
  <path
     class="cls-1"
     d="M219.13,222.8h-55.07c0-11.21.61-22.19-.12-33.09-1.68-25.2-6.29-49.82-19-72.08-3.49-6.11-8.07-11.91-13.22-16.69-11.58-10.74-25.31-10.48-37.31-.27-1.13.96-2.31,1.87-4.31,3.49-4.03-8.01-7.92-15.71-12.05-23.92,10.79-4.72,21.28-6.84,32.08-6.86,31.26-.07,56.02,13.68,75.75,37.05,20.27,24.02,30.76,52.19,33.13,83.35.73,9.55.11,19.21.11,29.02Z"
     id="path5" />
  <path
     class="cls-1"
     d="M61.52,222.82H3.79c-2.51-40.47,6.45-77.32,30.63-109.04,12.02,9.27,23.75,18.32,36.15,27.89-7.76,25.38-10.38,52.85-9.05,81.15Z"
     id="path6" />
</svg>
