<?xml version="1.0" encoding="UTF-8"?>
<svg xmlns="http://www.w3.org/2000/svg" xmlns:xlink="http://www.w3.org/1999/xlink" id="Ebene_1" data-name="Ebene 1" viewBox="0 0 235.33 47.7">
  <defs>
    <style>
      .cls-1 {
        fill: none;
      }

      .cls-2 {
        fill: #f5f6f6;
      }

      .cls-3 {
        clip-path: url(#clippath);
      }
    </style>
    <clipPath id="clippath">
      <rect class="cls-1" x="188" y=".37" width="47.33" height="47.33"></rect>
    </clipPath>
  </defs>
  <path class="cls-2" d="M15.43,18.37h-2.16v-7.99H4.49v7.99h-2.16V1.24h2.16v7.24h8.79V1.24h2.16v17.13h0ZM25.55,18.37h-2.17V3.14h-5.36v-1.9h12.84v1.9h-5.32v15.23h.01ZM33.48,18.37V1.24h2.16v15.21h7.49v1.92h-9.65ZM62.02,13.79c0,1.49-.54,2.67-1.62,3.53-1.08.86-2.58,1.29-4.5,1.29-2.03,0-3.6-.27-4.71-.81v-2.06c.73.31,1.52.56,2.38.74.87.18,1.68.27,2.43.27,1.28,0,2.25-.25,2.89-.74.65-.49.97-1.17.97-2.03,0-.57-.12-1.04-.35-1.41s-.63-.71-1.18-1.03-1.38-.68-2.5-1.09c-1.59-.58-2.72-1.26-3.4-2.04-.68-.79-1.02-1.8-1.02-3.05,0-1.34.5-2.4,1.5-3.19,1.01-.79,2.33-1.18,3.97-1.18s3.29.32,4.72.96l-.67,1.85c-1.47-.61-2.84-.91-4.1-.91-1.02,0-1.81.22-2.39.66-.57.44-.86,1.05-.86,1.84,0,.56.11,1.03.33,1.41.23.37.59.7,1.08,1.01.5.3,1.28.65,2.34,1.04,1.27.47,2.22.93,2.85,1.37.62.44,1.09.95,1.38,1.52.3.57.45,1.25.45,2.05h0ZM73.12,18.37l-.41-1.83h-.09c-.64.8-1.28,1.35-1.92,1.64-.63.28-1.43.42-2.4.42-1.27,0-2.26-.33-2.98-1-.72-.66-1.08-1.6-1.08-2.81,0-2.61,2.06-3.98,6.18-4.1l2.18-.08v-.76c0-.98-.21-1.7-.63-2.16-.42-.47-1.1-.7-2.03-.7-.68,0-1.32.1-1.93.3-.6.2-1.17.43-1.7.68l-.64-1.58c.65-.34,1.36-.61,2.12-.81.77-.2,1.52-.29,2.27-.29,1.55,0,2.71.34,3.47,1.03s1.14,1.78,1.14,3.28v8.77h-1.55ZM68.78,16.91c1.18,0,2.11-.32,2.78-.95.68-.64,1.02-1.55,1.02-2.72v-1.16l-1.9.08c-1.48.05-2.55.29-3.23.7-.67.41-1.01,1.07-1.01,1.96,0,.67.2,1.19.61,1.55s.99.54,1.73.54ZM86.6,18.37l-.41-1.83h-.09c-.64.8-1.28,1.35-1.92,1.64-.63.28-1.43.42-2.4.42-1.27,0-2.26-.33-2.98-1-.72-.66-1.08-1.6-1.08-2.81,0-2.61,2.06-3.98,6.18-4.1l2.18-.08v-.76c0-.98-.21-1.7-.63-2.16-.42-.47-1.1-.7-2.03-.7-.68,0-1.32.1-1.93.3-.6.2-1.17.43-1.7.68l-.64-1.58c.65-.34,1.36-.61,2.12-.81.77-.2,1.52-.29,2.27-.29,1.55,0,2.71.34,3.47,1.03s1.14,1.78,1.14,3.28v8.77h-1.55ZM82.25,16.91c1.18,0,2.11-.32,2.78-.95.68-.64,1.02-1.55,1.02-2.72v-1.16l-1.9.08c-1.48.05-2.55.29-3.23.7-.67.41-1.01,1.07-1.01,1.96,0,.67.2,1.19.61,1.55s.99.54,1.73.54ZM94.24,18.37h-2.11V.14h2.11v18.23ZM104.25,7.14h-3.25v11.23h-2.11V7.14h-2.25v-.98l2.25-.73v-.74c0-1.56.34-2.73,1.02-3.52.69-.78,1.74-1.17,3.16-1.17.82,0,1.65.14,2.5.43l-.56,1.65c-.73-.23-1.36-.35-1.91-.35-.71,0-1.24.23-1.58.7-.34.47-.52,1.21-.52,2.23v.83h3.25v1.64h0ZM112.07,18.6c-1.93,0-3.44-.58-4.55-1.75-1.09-1.17-1.64-2.78-1.64-4.83s.51-3.7,1.54-4.92c1.02-1.23,2.41-1.84,4.15-1.84,1.62,0,2.91.52,3.87,1.57.96,1.04,1.44,2.45,1.44,4.23v1.28h-8.81c.04,1.46.41,2.57,1.11,3.33s1.7,1.14,2.99,1.14c.69,0,1.34-.06,1.96-.18s1.34-.36,2.17-.71v1.85c-.71.3-1.38.52-2,.64s-1.36.19-2.21.19h-.02ZM111.54,6.99c-1.01,0-1.81.32-2.39.97-.59.65-.93,1.55-1.04,2.71h6.55c-.01-1.2-.29-2.12-.83-2.74s-1.3-.94-2.28-.94h-.01ZM122.25,18.37h-2.11V.14h2.11v18.23ZM130.89,18.6c-1.67,0-2.97-.58-3.89-1.73-.92-1.16-1.38-2.79-1.38-4.91s.46-3.74,1.38-4.92c.93-1.18,2.23-1.77,3.91-1.77s3.05.63,3.99,1.9h.15c-.02-.16-.05-.47-.09-.94-.04-.48-.06-.8-.06-.96V.14h2.11v18.23h-1.7l-.32-1.72h-.09c-.9,1.3-2.24,1.96-4.01,1.96h0ZM131.23,16.86c1.28,0,2.21-.35,2.8-1.04.59-.7.89-1.85.89-3.45v-.39c0-1.79-.3-3.06-.9-3.82-.59-.77-1.53-1.15-2.81-1.15-1.09,0-1.93.43-2.52,1.3-.59.86-.89,2.09-.89,3.69s.29,2.8.88,3.62c.59.82,1.45,1.23,2.56,1.23h-.01ZM146.57,18.6c-1.93,0-3.44-.58-4.55-1.75-1.09-1.17-1.64-2.78-1.64-4.83s.51-3.7,1.54-4.92c1.02-1.23,2.41-1.84,4.15-1.84,1.62,0,2.91.52,3.87,1.57.96,1.04,1.44,2.45,1.44,4.23v1.28h-8.81c.04,1.46.41,2.57,1.11,3.33s1.7,1.14,2.99,1.14c.69,0,1.34-.06,1.96-.18.62-.12,1.34-.36,2.17-.71v1.85c-.71.3-1.38.52-2,.64s-1.36.19-2.22.19h0ZM146.04,6.99c-1.01,0-1.81.32-2.39.97-.59.65-.93,1.55-1.04,2.71h6.55c0-1.2-.29-2.12-.83-2.74s-1.3-.94-2.29-.94h0ZM163.41,18.37v-8.23c0-1.05-.23-1.82-.7-2.33-.46-.52-1.19-.77-2.18-.77-1.32,0-2.28.37-2.88,1.1-.59.73-.89,1.91-.89,3.56v6.67h-2.11V5.5h1.7l.32,1.76h.12c.4-.63.96-1.12,1.68-1.46.72-.35,1.51-.53,2.38-.53,1.58,0,2.75.38,3.52,1.15.76.77,1.15,1.96,1.15,3.57v8.38h-2.11Z"></path>
  <g class="cls-3">
    <g>
      <path class="cls-2" d="M188.04.41s-.86,15.31,6.32,22.85c5.64,5.9,9.67,7.43,16.37,7.66,5.95-.34,7.38-1.09,8.23-1.53-.07-.34-.16-.94-.68-2.13-.48-1.21-1.09-2.2-1.09-2.2,0,0-2.14,1.53-4.52,1.53s-6.37-.84-8.32-6.47c-2.02-5.8-2.27-14.75-2.27-16.84s.07-2.81.07-2.81l-14.11-.07h.01Z"></path>
      <path class="cls-2" d="M235.18,47.63s1.47-15.86-5.48-23.47c-5.44-5.99-9.52-7.18-16.02-7.38-5.76.34-7.5,1.49-8.3,1.92.07.34.04.61.52,1.82s1.07,2.11,1.07,2.11c0,0,2.34-1.44,4.62-1.44s6.3,1.11,8.2,6.82c1.93,5.85,1.77,14.63,1.77,16.73s-.07,2.83-.07,2.83l13.64.07h.04Z"></path>
      <path class="cls-2" d="M221.76.37h13.39s.16,8.83-.32,11.55c-1.41,7.74-4.71,11.29-4.71,11.29,0,0-1.22-1.71-4.12-3.7-2.91-2.01-5.43-2.95-5.43-2.95,0,0,.97-4.92,1.11-7.77.16-2.84.07-8.41.07-8.41"></path>
      <path class="cls-2" d="M202.76,47.7h-14.66s.23-5.94,1.3-11.27c1.45-7.15,5.13-11.17,5.13-11.17,0,0,.4.78,3.57,2.83,3.18,2.05,5.93,3.04,5.93,3.04,0,0-.84,4.62-1.03,7.55-.16,2.93-.27,9.03-.27,9.03"></path>
    </g>
  </g>
  <path class="cls-2" d="M15.52,42.43h-2.16v-7.99H4.58v7.99h-2.16v-17.13h2.16v7.24h8.79v-7.24h2.16v17.13h0ZM25.63,42.43h-2.17v-15.23h-5.36v-1.9h12.84v1.9h-5.32v15.23h.01ZM33.57,42.43v-17.13h2.16v15.21h7.49v1.92h-9.65Z"></path>
  <g>
    <path class="cls-2" d="M55.43,24.81c2.24,0,3.87.44,4.9,1.32,1.02.88,1.54,2.12,1.54,3.72,0,.94-.21,1.83-.64,2.65-.42.82-1.14,1.49-2.14,2s-2.36.77-4.07.77h-1.97v6.67h-2.16v-17.14h4.54,0ZM55.23,26.66h-2.18v6.77h1.73c1.63,0,2.85-.26,3.65-.79.8-.53,1.2-1.42,1.2-2.69,0-1.1-.36-1.93-1.07-2.47-.71-.54-1.82-.82-3.32-.82h-.01Z"></path>
    <path class="cls-2" d="M76.31,35.49c0,2.13-.54,3.78-1.62,4.94s-2.54,1.75-4.38,1.75c-1.14,0-2.15-.26-3.04-.78s-1.59-1.28-2.1-2.28-.77-2.21-.77-3.64c0-2.13.53-3.77,1.6-4.92,1.06-1.15,2.52-1.73,4.38-1.73,1.15,0,2.18.26,3.07.78.9.52,1.6,1.27,2.1,2.26.5.98.76,2.19.76,3.61h0ZM66.59,35.49c0,1.52.3,2.72.9,3.61s1.56,1.33,2.87,1.33,2.25-.44,2.86-1.33c.61-.89.91-2.09.91-3.61s-.3-2.71-.91-3.58c-.61-.86-1.57-1.3-2.88-1.3s-2.26.43-2.86,1.3c-.59.86-.89,2.06-.89,3.58Z"></path>
    <path class="cls-2" d="M85.83,28.84c1.54,0,2.7.38,3.48,1.13.78.75,1.18,1.95,1.18,3.6v8.38h-2.09v-8.23c0-2.06-.96-3.1-2.88-3.1-1.42,0-2.41.4-2.95,1.2s-.82,1.95-.82,3.46v6.67h-2.11v-12.86h1.7l.31,1.75h.12c.42-.67.99-1.17,1.73-1.5.74-.33,1.51-.49,2.33-.49h0Z"></path>
    <path class="cls-2" d="M99.03,28.84c.85,0,1.61.16,2.29.48s1.26.81,1.74,1.46h.12l.29-1.7h1.68v13.08c0,1.84-.47,3.22-1.4,4.15-.94.93-2.39,1.39-4.36,1.39s-3.43-.27-4.63-.82v-1.94c1.26.67,2.85,1.01,4.75,1.01,1.1,0,1.97-.32,2.6-.97s.95-1.53.95-2.65v-.5c0-.19,0-.47.02-.83s.03-.61.05-.76h-.1c-.86,1.3-2.19,1.94-3.98,1.94-1.66,0-2.96-.58-3.9-1.75s-1.4-2.8-1.4-4.9.47-3.68,1.4-4.88,2.23-1.81,3.88-1.81ZM99.32,30.62c-1.07,0-1.9.43-2.5,1.28-.59.86-.89,2.08-.89,3.66s.29,2.8.86,3.64c.58.84,1.43,1.26,2.57,1.26,1.3,0,2.24-.35,2.83-1.04.59-.7.89-1.82.89-3.37v-.5c0-1.74-.3-3-.91-3.77s-1.56-1.15-2.86-1.15h.01Z"></path>
    <path class="cls-2" d="M114.11,28.86c1.57,0,2.73.34,3.48,1.03s1.13,1.78,1.13,3.29v8.76h-1.54l-.41-1.82h-.1c-.56.7-1.15,1.22-1.78,1.56s-1.47.5-2.54.5c-1.17,0-2.14-.31-2.9-.92-.77-.62-1.15-1.58-1.15-2.89s.5-2.27,1.51-2.96c1.01-.7,2.56-1.08,4.66-1.14l2.18-.07v-.77c0-1.07-.23-1.82-.7-2.23s-1.12-.62-1.97-.62c-.67,0-1.31.1-1.92.3-.61.2-1.18.43-1.7.68l-.65-1.58c.56-.3,1.22-.56,1.99-.78.77-.22,1.57-.32,2.4-.32v-.02ZM116.62,35.66l-1.9.07c-1.6.06-2.71.32-3.32.77-.62.45-.92,1.08-.92,1.9,0,.72.22,1.25.66,1.58.44.34,1,.5,1.69.5,1.07,0,1.97-.3,2.7-.9.73-.6,1.09-1.52,1.09-2.77v-1.15Z"></path>
    <path class="cls-2" d="M133.45,29.08v12.86h-1.73l-.31-1.7h-.1c-.42.67-.99,1.16-1.73,1.48-.74.31-1.52.47-2.35.47-1.55,0-2.72-.37-3.5-1.12-.78-.74-1.18-1.93-1.18-3.56v-8.42h2.14v8.28c0,2.05.95,3.07,2.86,3.07,1.42,0,2.41-.4,2.96-1.2s.83-1.95.83-3.46v-6.7h2.11,0Z"></path>
  </g>
</svg>
